# xmcd
#
# Track frame offsets:
#	150
#	8905
#	37344
#	92085
#	108671
#	171513
#
# Disc length: 2665 seconds
#
# Revision: 1
# Processed by: cddbd v1.5.2PL0 Copyright (c) Steve Scherf et al.
# Submitted via: audiograbber 1.83.01
#
DISCID=4f0a6706
DTITLE=Grateful Dead - 67-03-18 Winterland Arena, San Francisco CA
DYEAR=1900
DGENRE=
TTITLE0=Golden Road
TTITLE1=Cream Puff War
TTITLE2=The Same Thing
TTITLE3=Cold Rain and Snow
TTITLE4=Viola Lee Blues
TTITLE5=Death Don't Have No Mercy
EXTD=
EXTT0=
EXTT1=
EXTT2=
EXTT3=
EXTT4=
EXTT5=
PLAYORDER=
